<svg
        version="1.1"
        xmlns="http://www.w3.org/2000/svg"
        xmlns:xlink="http://www.w3.org/1999/xlink"
        x="0px"
        y="0px"
        width="960px"
        height="560px"
        viewBox="0 0 960 560"
        style="enable-background:new 0 0 960 560;"
        xml:space="preserve"
      >
        <g id="Layer_1">
          <rect
            y="38"
            style="display:none;fill:#DDD49F;"
            width="960"
            height="560"
          />
          <g id="Layer_1_1_">
            <polygon
              style="fill:#F4E8B5;"
              points="209.5,104.2 213.6,141.4 250.8,145.5 213.6,149.6 209.5,186.8 205.4,149.6 168.2,145.5 
			205.4,141.4 		"
            />
            <polygon
              style="fill:#F4E8B5;"
              points="225.6,184 227.2,198.8 242,200.4 227.2,202 225.6,216.8 224,202 209.2,200.4 224,198.8 		
			"
            />
            <polygon
              style="fill:#F4E8B5;"
              points="626.5,322.2 632.6,378.4 688.8,384.5 632.6,390.6 626.5,446.8 620.4,390.6 564.2,384.5 
			620.4,378.4 		"
            />
            <polygon
              style="fill:#F4E8B5;"
              points="719.8,73.6 721.7,90.3 738.4,92.2 721.7,94 719.8,110.8 718,94 701.2,92.2 718,90.3 		"
            />
            <polygon
              style="fill:#F4E8B5;"
              points="700.8,45.7 702.4,60.6 717.3,62.2 702.4,63.9 700.8,78.8 699.1,63.9 684.2,62.2 
			699.1,60.6 		"
            />
            <polygon
              style="fill:#F4E8B5;"
              points="688.4,110.4 689,116 694.6,116.6 689,117.2 688.4,122.8 687.8,117.2 682.2,116.6 
			687.8,116 		"
            />
            <polygon
              style="fill:#F4E8B5;"
              points="271.2,128.1 271.6,132.2 275.8,132.7 271.6,133.2 271.2,137.3 270.7,133.2 266.5,132.7 
			270.7,132.2 		"
            />
            <polygon
              style="fill:#F4E8B5;"
              points="168.4,458.4 169,464 174.6,464.6 169,465.2 168.4,470.8 167.8,465.2 162.2,464.6 
			167.8,464 		"
            />
            <polygon
              style="fill:#F4E8B5;"
              points="139.6,402 141.2,416.8 156,418.4 141.2,420 139.6,434.8 138,420 123.2,418.4 138,416.8 		
			"
            />
            <polygon
              style="fill:#F4E8B5;"
              points="767.6,507 769.2,521.8 784,523.4 769.2,525 767.6,539.8 766,525 751.2,523.4 766,521.8 		
			"
            />
            <polygon
              style="fill:#F4E8B5;"
              points="784.1,471 785.2,480.8 795,481.9 785.2,483 784.1,492.8 783,483 773.2,481.9 783,480.8 		
			"
            />
            <polygon
              style="fill:#F4E8B5;"
              points="295.1,385 296.2,394.8 306,395.9 296.2,397 295.1,406.8 294,397 284.2,395.9 294,394.8 		
			"
            />
            <polygon
              style="fill:#F4E8B5;"
              points="29.1,33 30.2,42.8 40,43.9 30.2,45 29.1,54.8 28,45 18.2,43.9 28,42.8 		"
            />
            <polygon
              style="fill:#F4E8B5;"
              points="850.1,222 851.2,231.8 861,232.9 851.2,234 850.1,243.8 849,234 839.2,232.9 849,231.8 		
			"
            />
            <polygon
              style="fill:#F4E8B5;"
              points="738.7,248.9 739.2,253.8 744.1,254.3 739.2,254.9 738.7,259.8 738.1,254.9 733.2,254.3 
			738.1,253.8 		"
            />
            <polygon
              style="fill:#F4E8B5;"
              points="348.1,485 349.2,494.8 359,495.9 349.2,497 348.1,506.8 347,497 337.2,495.9 347,494.8 		
			"
            />
            <polygon
              style="fill:#F4E8B5;"
              points="899.7,76.9 900.2,81.8 905.1,82.3 900.2,82.9 899.7,87.8 899.1,82.9 894.2,82.3 
			899.1,81.8 		"
            />
            <polygon
              style="fill:#F4E8B5;"
              points="491.4,12.4 492,18 497.6,18.6 492,19.2 491.4,24.8 490.8,19.2 485.2,18.6 490.8,18 		"
            />
            <polygon
              style="fill:#F4E8B5;"
              points="410.1,124 411.2,133.8 421,134.9 411.2,136 410.1,145.8 409,136 399.2,134.9 409,133.8 		
			"
            />
            <polygon
              style="fill:#F4E8B5;"
              points="773.5,354.2 777.6,391.4 814.8,395.5 777.6,399.6 773.5,436.8 769.4,399.6 732.2,395.5 
			769.4,391.4 		"
            />
            <polygon
              style="fill:#F4E8B5;"
              points="373.6,265 375.2,279.8 390,281.4 375.2,283 373.6,297.8 372,283 357.2,281.4 372,279.8 		
			"
            />
            <polygon
              style="fill:#F4E8B5;"
              points="347.5,245.2 353.6,301.4 409.8,307.5 353.6,313.6 347.5,369.8 341.4,313.6 285.2,307.5 
			341.4,301.4 		"
            />
            <polygon
              style="fill:#F4E8B5;"
              points="459.8,53.6 461.7,70.3 478.4,72.2 461.7,74 459.8,90.8 458,74 441.2,72.2 458,70.3 		"
            />
            <polygon
              style="fill:#F4E8B5;"
              points="865.8,241.7 867.4,256.6 882.3,258.2 867.4,259.9 865.8,274.8 864.1,259.9 849.2,258.2 
			864.1,256.6 		"
            />
            <polygon
              style="fill:#F4E8B5;"
              points="369.7,74.6 370.2,78.8 374.4,79.3 370.2,79.7 369.7,83.9 369.3,79.7 365.1,79.3 
			369.3,78.8 		"
            />
            <polygon
              style="fill:#F4E8B5;"
              points="441.4,348.4 442,354 447.6,354.6 442,355.2 441.4,360.8 440.8,355.2 435.2,354.6 
			440.8,354 		"
            />
            <polygon
              style="fill:#F4E8B5;"
              points="316.4,539.4 317,545 322.6,545.6 317,546.2 316.4,551.8 315.8,546.2 310.2,545.6 
			315.8,545 		"
            />
            <polygon
              style="fill:#F4E8B5;"
              points="287.6,483 289.2,497.8 304,499.4 289.2,501 287.6,515.8 286,501 271.2,499.4 286,497.8 		
			"
            />
            <polygon
              style="fill:#F4E8B5;"
              points="488.6,430 490.2,444.8 505,446.4 490.2,448 488.6,462.8 487,448 472.2,446.4 487,444.8 		
			"
            />
            <polygon
              style="fill:#F4E8B5;"
              points="505.1,394 506.2,403.8 516,404.9 506.2,406 505.1,415.8 504,406 494.2,404.9 504,403.8 		
			"
            />
            <polygon
              style="fill:#F4E8B5;"
              points="16.1,308 17.2,317.8 27,318.9 17.2,320 16.1,329.8 15,320 5.2,318.9 15,317.8 		"
            />
            <polygon
              style="fill:#F4E8B5;"
              points="552.1,111 553.2,120.8 563,121.9 553.2,123 552.1,132.8 551,123 541.2,121.9 551,120.8 		
			"
            />
            <polygon
              style="fill:#F4E8B5;"
              points="571.1,145 572.2,154.8 582,155.9 572.2,157 571.1,166.8 570,157 560.2,155.9 570,154.8 		
			"
            />
            <polygon
              style="fill:#F4E8B5;"
              points="266.1,85.5 266.5,89.2 270.2,89.6 266.5,90 266.1,93.7 265.7,90 262,89.6 265.7,89.2 		"
            />
            <polygon
              style="fill:#F4E8B5;"
              points="69.1,408 70.2,417.8 80,418.9 70.2,420 69.1,429.8 68,420 58.2,418.9 68,417.8 		"
            />
            <polygon
              style="fill:#F4E8B5;"
              points="609.7,22.9 610.2,27.8 615.1,28.3 610.2,28.9 609.7,33.8 609.1,28.9 604.2,28.3 
			609.1,27.8 		"
            />
            <polygon
              style="fill:#F4E8B5;"
              points="639.4,93.4 640,99 645.6,99.6 640,100.2 639.4,105.8 638.8,100.2 633.2,99.6 638.8,99 		
			"
            />
            <polygon
              style="fill:#F4E8B5;"
              points="131.1,47 132.2,56.8 142,57.9 132.2,59 131.1,68.8 130,59 120.2,57.9 130,56.8 		"
            />
            <polygon
              style="fill:#F4E8B5;"
              points="461.5,426.2 465.6,463.4 502.8,467.5 465.6,471.6 461.5,508.8 457.4,471.6 420.2,467.5 
			457.4,463.4 		"
            />
            <polygon
              style="fill:#F4E8B5;"
              points="477.6,506 479.2,520.8 494,522.4 479.2,524 477.6,538.8 476,524 461.2,522.4 476,520.8 		
			"
            />
            <polygon
              style="fill:#F4E8B5;"
              points="530.4,426.4 531,432 536.6,432.6 531,433.2 530.4,438.8 529.8,433.2 524.2,432.6 
			529.8,432 		"
            />
            <polygon
              style="fill:#F4E8B5;"
              points="281.1,355 282.2,364.8 292,365.9 282.2,367 281.1,376.8 280,367 270.2,365.9 280,364.8 		
			"
            />
            <polygon
              style="fill:#F4E8B5;"
              points="429.1,436 430.2,445.8 440,446.9 430.2,448 429.1,457.8 428,448 418.2,446.9 428,445.8 		
			"
            />
            <polygon
              style="fill:#F4E8B5;"
              points="523.7,369.9 524.2,374.8 529.1,375.3 524.2,375.9 523.7,380.8 523.1,375.9 518.2,375.3 
			523.1,374.8 		"
            />
            <polygon
              style="fill:#F4E8B5;"
              points="383.1,369 384.2,378.8 394,379.9 384.2,381 383.1,390.8 382,381 372.2,379.9 382,378.8 		
			"
            />
            <polygon
              style="fill:#F4E8B5;"
              points="842.8,438.6 844.7,455.3 861.4,457.2 844.7,459 842.8,475.8 841,459 824.2,457.2 
			841,455.3 		"
            />
            <polygon
              style="fill:#F4E8B5;"
              points="823.8,410.7 825.4,425.6 840.3,427.2 825.4,428.9 823.8,443.8 822.1,428.9 807.2,427.2 
			822.1,425.6 		"
            />
            <polygon
              style="fill:#F4E8B5;"
              points="811.4,475.4 812,481 817.6,481.6 812,482.2 811.4,487.8 810.8,482.2 805.2,481.6 
			810.8,481 		"
            />
            <polygon
              style="fill:#F4E8B5;"
              points="582.8,418.6 584.7,435.3 601.4,437.2 584.7,439 582.8,455.8 581,439 564.2,437.2 
			581,435.3 		"
            />
            <polygon
              style="fill:#F4E8B5;"
              points="694.1,510 695.2,519.8 705,520.9 695.2,522 694.1,531.8 693,522 683.2,520.9 693,519.8 		
			"
            />
            <polygon
              style="fill:#F4E8B5;"
              points="762.4,458.4 763,464 768.6,464.6 763,465.2 762.4,470.8 761.8,465.2 756.2,464.6 
			761.8,464 		"
            />
            <polygon
              style="fill:#F4E8B5;"
              points="79.1,246 80.2,255.8 90,256.9 80.2,258 79.1,267.8 78,258 68.2,256.9 78,255.8 		"
            />
            <polygon
              style="fill:#F4E8B5;"
              points="657.6,88.1 662.3,131.7 705.9,136.4 662.3,141.2 657.6,184.8 652.8,141.2 609.2,136.4 
			652.8,131.7 		"
            />
            <polygon
              style="fill:#F4E8B5;"
              points="172.4,109.4 173,115 178.6,115.6 173,116.2 172.4,121.8 171.8,116.2 166.2,115.6 
			171.8,115 		"
            />
            <polygon
              style="fill:#F4E8B5;"
              points="585.6,114 587.2,128.8 602,130.4 587.2,132 585.6,146.8 584,132 569.2,130.4 584,128.8 		
			"
            />
            <polygon
              style="fill:#F4E8B5;"
              points="236.1,155 237.2,164.8 247,165.9 237.2,167 236.1,176.8 235,167 225.2,165.9 235,164.8 		
			"
            />
            <polygon
              style="fill:#F4E8B5;"
              points="560.5,175.2 564.6,212.4 601.8,216.5 564.6,220.6 560.5,257.8 556.4,220.6 519.2,216.5 
			556.4,212.4 		"
            />
            <polygon
              style="fill:#F4E8B5;"
              points="258.4,190.5 258.8,194.7 263,195.1 258.8,195.6 258.4,199.8 257.9,195.6 253.7,195.1 
			257.9,194.7 		"
            />
            <polygon
              style="fill:#F4E8B5;"
              points="160.1,197 161.2,206.8 171,207.9 161.2,209 160.1,218.8 159,209 149.2,207.9 159,206.8 		
			"
            />
            <polygon
              style="fill:#F4E8B5;"
              points="253.3,148 253.7,151.7 257.4,152.1 253.7,152.5 253.3,156.2 252.9,152.5 249.2,152.1 
			252.9,151.7 		"
            />
            <polygon
              style="fill:#F4E8B5;"
              points="114.1,130 115.2,139.8 125,140.9 115.2,142 114.1,151.8 113,142 103.2,140.9 113,139.8 		
			"
            />
            <polygon
              style="fill:#F4E8B5;"
              points="201.2,382.1 201.6,386.2 205.8,386.7 201.6,387.2 201.2,391.3 200.7,387.2 196.5,386.7 
			200.7,386.2 		"
            />
            <polygon
              style="fill:#F4E8B5;"
              points="299.7,328.6 300.2,332.8 304.4,333.3 300.2,333.7 299.7,337.9 299.3,333.7 295.1,333.3 
			299.3,332.8 		"
            />
            <polygon
              style="fill:#F4E8B5;"
              points="196.1,339.5 196.5,343.2 200.2,343.6 196.5,344 196.1,347.7 195.7,344 192,343.6 
			195.7,343.2 		"
            />
            <polygon
              style="fill:#F4E8B5;"
              points="188.4,444.5 188.8,448.7 193,449.1 188.8,449.6 188.4,453.8 187.9,449.6 183.7,449.1 
			187.9,448.7 		"
            />
            <polygon
              style="fill:#F4E8B5;"
              points="183.3,402 183.7,405.7 187.4,406.1 183.7,406.5 183.3,410.2 182.9,406.5 179.2,406.1 
			182.9,405.7 		"
            />
            <polygon
              style="fill:#F4E8B5;"
              points="808.2,256.1 808.6,260.2 812.8,260.7 808.6,261.2 808.2,265.3 807.7,261.2 803.5,260.7 
			807.7,260.2 		"
            />
            <polygon
              style="fill:#F4E8B5;"
              points="906.7,202.6 907.2,206.8 911.4,207.3 907.2,207.7 906.7,211.9 906.3,207.7 902.1,207.3 
			906.3,206.8 		"
            />
            <polygon
              style="fill:#F4E8B5;"
              points="803.1,213.5 803.5,217.2 807.2,217.6 803.5,218 803.1,221.7 802.7,218 799,217.6 
			802.7,217.2 		"
            />
            <polygon
              style="fill:#F4E8B5;"
              points="795.4,318.5 795.8,322.7 800,323.1 795.8,323.6 795.4,327.8 794.9,323.6 790.7,323.1 
			794.9,322.7 		"
            />
            <polygon
              style="fill:#F4E8B5;"
              points="790.3,276 790.7,279.7 794.4,280.1 790.7,280.5 790.3,284.2 789.9,280.5 786.2,280.1 
			789.9,279.7 		"
            />
            <polygon
              style="fill:#F4E8B5;"
              points="759.2,90.1 759.6,94.2 763.8,94.7 759.6,95.2 759.2,99.3 758.7,95.2 754.5,94.7 
			758.7,94.2 		"
            />
            <polygon
              style="fill:#F4E8B5;"
              points="857.7,36.6 858.2,40.8 862.4,41.3 858.2,41.7 857.7,45.9 857.3,41.7 853.1,41.3 
			857.3,40.8 		"
            />
            <polygon
              style="fill:#F4E8B5;"
              points="754.1,47.5 754.5,51.2 758.2,51.6 754.5,52 754.1,55.7 753.7,52 750,51.6 753.7,51.2 		"
            />
            <polygon
              style="fill:#F4E8B5;"
              points="746.4,152.5 746.8,156.7 751,157.1 746.8,157.6 746.4,161.8 745.9,157.6 741.7,157.1 
			745.9,156.7 		"
            />
            <polygon
              style="fill:#F4E8B5;"
              points="741.3,110 741.7,113.7 745.4,114.1 741.7,114.5 741.3,118.2 740.9,114.5 737.2,114.1 
			740.9,113.7 		"
            />
            <polygon
              style="fill:#F4E8B5;"
              points="92.2,85.1 92.6,89.2 96.8,89.7 92.6,90.2 92.2,94.3 91.7,90.2 87.5,89.7 91.7,89.2 		"
            />
            <polygon
              style="fill:#F4E8B5;"
              points="190.7,31.6 191.2,35.8 195.4,36.3 191.2,36.7 190.7,40.9 190.3,36.7 186.1,36.3 
			190.3,35.8 		"
            />
            <polygon
              style="fill:#F4E8B5;"
              points="87.1,42.5 87.5,46.2 91.2,46.6 87.5,47 87.1,50.7 86.7,47 83,46.6 86.7,46.2 		"
            />
            <polygon
              style="fill:#F4E8B5;"
              points="79.4,147.5 79.8,151.7 84,152.1 79.8,152.6 79.4,156.8 78.9,152.6 74.7,152.1 78.9,151.7 
					"
            />
            <polygon
              style="fill:#F4E8B5;"
              points="74.3,105 74.7,108.7 78.4,109.1 74.7,109.5 74.3,113.2 73.9,109.5 70.2,109.1 73.9,108.7 
					"
            />
            <polygon
              style="fill:#F4E8B5;"
              points="322.6,136 324.2,150.8 339,152.4 324.2,154 322.6,168.8 321,154 306.2,152.4 321,150.8 		
			"
            />
          </g>
        </g>
        <g id="Layer_2_1_">
          <g>
            <g>
              <g>
                <g>
                  <circle
                    style="fill:none;stroke:#D8D5C3;stroke-width:2;stroke-miterlimit:10;stroke-dasharray:2;"
                    cx="480"
                    cy="280"
                    r="214.6"
                  >
                    <animateTransform
                      attributeName="transform"
                      attributeType="XML"
                      type="rotate"
                      from="0 480 280"
                      to="360 480 280"
                      dur="25s"
                      repeatCount="indefinite"
                    />
                  </circle>
                  <g>
                    <path
                      style="fill:none;stroke:#DBB928;stroke-width:5;stroke-linecap:round;stroke-miterlimit:10;stroke-dasharray:30;"
                      d="M704.7,303.4
					C693,417.2,596.8,505.9,480,505.9c-124.8,0-225.9-101.1-225.9-225.9S355.2,54.1,480,54.1c105.2,0,193.6,71.9,218.7,169.2"
                    >
                      <animateTransform
                        attributeName="transform"
                        attributeType="XML"
                        type="rotate"
                        from="0 480 280"
                        to="360 480 280"
                        dur="60s"
                        repeatCount="indefinite"
                      />
                    </path>
                    <g>
                      <g>
                        <ellipse
                          transform="matrix(5.529067e-02 -0.9985 0.9985 5.529067e-02 361.3769 991.2798)"
                          style="fill:#B2951D;"
                          cx="704.5"
                          cy="304.7"
                          rx="21.8"
                          ry="21.8"
                        >
                          <animateTransform
                            attributeName="transform"
                            attributeType="XML"
                            type="rotate"
                            from="0 480 280"
                            to="360 480 280"
                            dur="30s"
                            repeatCount="indefinite"
                          />
                        </ellipse>

                        <path
                          style="fill:#EAD475;"
                          d="M679.9,303.3c-0.8,13.6,9.7,25.3,23.3,26c13.6,0.8,25.3-9.7,26-23.3c0.8-13.6-9.7-25.3-23.3-26
							S680.6,289.7,679.9,303.3C679.1,316.9,680.6,289.7,679.9,303.3z M723.4,305.7c-0.6,10.4-9.5,18.4-19.9,17.8
							c-10.4-0.6-18.4-9.5-17.8-19.9c0.6-10.4,9.5-18.4,19.9-17.8C716,286.4,724,295.3,723.4,305.7
							C722.8,316.1,724,295.3,723.4,305.7z"
                        >
                          <animateTransform
                            attributeName="transform"
                            attributeType="XML"
                            type="rotate"
                            from="0 480 280"
                            to="360 480 280"
                            dur="30s"
                            repeatCount="indefinite"
                          />
                        </path>
                      </g>
                    </g>
                    <g>
                      <ellipse
                        transform="matrix(0.9911 -0.1332 0.1332 0.9911 -23.1312 94.8965)"
                        style="fill:#D8C67C;"
                        cx="697.9"
                        cy="220.4"
                        rx="60.2"
                        ry="60.2"
                      >
                        <animateTransform
                          attributeName="transform"
                          attributeType="XML"
                          type="rotate"
                          from="0 480 280"
                          to="360 480 280"
                          dur="60s"
                          repeatCount="indefinite"
                        />
                      </ellipse>
                    </g>
                  </g>
                </g>

                <circle
                  style="fill:none;stroke:#E2DD9E;stroke-width:0.5;stroke-miterlimit:10;stroke-dasharray:3;"
                  cx="480"
                  cy="280"
                  r="199.4"
                >
                  <animateTransform
                    attributeName="transform"
                    attributeType="XML"
                    type="rotate"
                    from="0 480 280"
                    to="360 480 280"
                    dur="15s"
                    repeatCount="indefinite"
                  />
                </circle>

                <path
                  style="fill:#E2DD9E;"
                  d="M664.2,280c0,68.8-37.9,128.8-94,160.1c-26.4,14.8-56.9,23.2-89.3,23.2
			c-101.3,0-183.3-82.1-183.3-183.3c0-90.9,66.2-166.4,153.1-180.8c9.8-1.6,20-2.5,30.3-2.5C582.1,96.7,664.2,178.8,664.2,280z"
                />
                <path
                  style="fill:#BEBA85;"
                  d="M663.3,280c0,91-66.3,166.5-153.2,180.9c56.1-31.3,94-91.3,94-160.1
			c0-101.2-82.1-183.3-183.3-183.3c-10.3,0-20.4,0.9-30.3,2.5c26.4-14.8,57-23.3,89.5-23.3C581.3,96.7,663.3,178.7,663.3,280z"
                />
              </g>
            </g>
            <g id="Layer_3">
              <g id="Layer_2">
                <g>
                  <path
                    style="fill:#D3BF4C;"
                    d="M45,402c0,0,3.4-2.4,9.7-6.9c6.3-4.4,15.6-11,27.6-19c12-8.1,26.6-17.8,43.5-28.7
				c16.9-10.9,36.2-23,57.4-35.8c21.3-12.8,44.5-26.3,69.5-39.8s51.8-27.2,80.3-39.7c14.2-6.2,28.9-12.2,44.1-17.5
				s30.8-10,47.1-13.1c4.1-0.7,8.2-1.4,12.4-1.9c4.2-0.5,8.4-0.8,12.6-0.9c8.5-0.2,17.2,0.4,25.8,3c4.3,1.3,8.5,3.1,12.3,5.7
				c3.8,2.5,7.3,5.8,10.1,9.5c2.8,3.7,4.8,7.9,6.2,12.2c1.4,4.3,2.2,8.7,2.6,13.1c0.4,4.4,0.4,8.7,0.2,13l-0.5,6.2
				c-0.2,2.1-0.2,3.9-0.3,5.9c-0.1,7.8,0.8,15.7,3.6,22.5c1.4,3.4,3.2,6.6,5.5,9.3c2.4,2.7,5.2,4.9,8.3,6.7c6.3,3.6,14,5.1,21.6,5.5
				c7.7,0.5,15.5-0.2,23.3-1.4c7.8-1.2,15.5-2.9,23-4.9c15.2-4,29.9-9.3,44.2-14.9c14.3-5.7,28.1-11.9,41.5-18.2
				c13.4-6.3,26.4-12.8,39-19.4c12.5-6.5,24.6-13.2,36.3-19.6c11.6-6.5,22.8-12.9,33.5-19.1c21.3-12.5,40.7-24.3,57.8-35
				c17-10.7,31.8-20.1,43.9-28c12.1-7.9,21.6-14.1,28-18.4c6.4-4.3,9.8-6.6,9.8-6.6s-3.3,2.5-9.6,7c-6.3,4.6-15.4,11.2-27.3,19.5
				c-11.8,8.3-26.3,18.3-43.1,29.4c-16.8,11.1-35.8,23.5-57,36.5c-10.6,6.5-21.6,13.2-33.2,19.9c-11.5,6.7-23.6,13.5-36.1,20.3
				c-25,13.5-51.8,27.2-80.7,39c-14.4,5.9-29.4,11.3-45,15.7c-7.8,2.1-15.8,4-23.9,5.3c-8.2,1.2-16.5,2-25.1,1.5
				c-4.3-0.2-8.6-0.8-12.9-1.8c-4.3-1-8.5-2.5-12.5-4.7s-7.7-5.1-10.7-8.6s-5.4-7.5-7.1-11.7c-3.4-8.4-4.3-17.3-4.3-25.9
				c0.1-2.2,0.1-4.5,0.3-6.5l0.4-6.1c0.2-3.9,0.2-7.9-0.2-11.7c-0.7-7.7-2.8-15.1-7.1-20.9c-2.1-2.9-4.7-5.4-7.8-7.4
				c-3-2-6.4-3.5-10-4.6c-7.2-2.2-15.1-2.9-22.9-2.7c-3.9,0.1-7.9,0.4-11.8,0.8c-3.9,0.5-7.9,1.1-11.8,1.8
				c-7.8,1.5-15.6,3.3-23.2,5.4c-7.7,2.1-15.2,4.5-22.7,7c-14.9,5.1-29.5,10.9-43.7,16.9c-28.3,12.2-55.1,25.3-80.3,38.3
				c-12.6,6.5-24.7,13.1-36.4,19.5c-11.7,6.4-22.9,12.7-33.7,18.8c-21.5,12.3-41,23.8-58.2,34.2c-17.2,10.4-32.1,19.6-44.4,27.3
				c-12.2,7.7-21.8,13.8-28.3,18C48.5,399.8,45,402,45,402z"
                  />
                </g>
                <g>
                  <path
                    style="fill:#D3BF4C;"
                    d="M24.6,424.8c0,0,3.4-2.4,9.7-6.8c6.4-4.4,15.7-10.9,27.7-18.9s26.7-17.7,43.6-28.5
				c17-10.9,36.2-22.9,57.5-35.6s44.5-26.2,69.6-39.6c25-13.5,51.8-27.1,80.3-39.5c14.2-6.2,28.9-12.2,44-17.5s30.8-10,47-13
				c4.1-0.7,8.2-1.4,12.3-1.9c4.1-0.5,8.3-0.8,12.5-0.9c8.4-0.2,17,0.4,25.4,3c4.2,1.3,8.3,3.1,12.1,5.6c3.8,2.5,7.1,5.7,9.8,9.3
				c2.7,3.6,4.7,7.8,6.1,12s2.2,8.6,2.6,12.9s0.4,8.6,0.2,12.9l-0.5,6.2c-0.2,2.1-0.2,4-0.3,6c-0.1,7.9,0.8,15.9,3.6,22.9
				c1.4,3.5,3.3,6.8,5.7,9.6c2.4,2.8,5.4,5.1,8.6,6.9c6.5,3.7,14.3,5.2,22,5.6c7.8,0.5,15.7-0.2,23.5-1.4c7.8-1.2,15.5-2.9,23.1-4.9
				c15.2-4.1,30-9.3,44.3-15s28.1-11.9,41.6-18.2c13.4-6.3,26.4-12.9,39-19.5c25.1-13.2,48.4-26.4,69.7-38.9
				c10.7-6.3,20.8-12.4,30.4-18.3c9.6-5.9,18.7-11.5,27.3-16.8c17-10.7,31.8-20.2,43.8-28.2c12.1-8,21.5-14.2,27.9-18.6
				c6.4-4.4,9.8-6.7,9.8-6.7s-3.3,2.4-9.6,7c-6.3,4.5-15.5,11.2-27.4,19.4s-26.4,18.1-43.2,29.2c-16.8,11.1-35.9,23.4-57,36.4
				c-21.1,12.9-44.3,26.6-69.3,40.1s-51.9,27-80.7,38.8c-14.4,5.9-29.3,11.3-44.9,15.6c-7.8,2.1-15.7,3.9-23.8,5.2
				c-8.1,1.2-16.4,2-24.9,1.5c-4.2-0.2-8.5-0.8-12.7-1.8s-8.4-2.5-12.3-4.7s-7.5-5-10.5-8.4s-5.3-7.4-6.9-11.5
				c-3.3-8.3-4.3-17-4.2-25.6c0.1-2.1,0.1-4.4,0.3-6.4l0.4-6.1c0.2-4,0.2-7.9-0.2-11.9c-0.7-7.8-2.8-15.4-7.3-21.4
				c-2.2-3-4.9-5.6-8-7.6c-3.1-2.1-6.6-3.6-10.3-4.8c-7.4-2.3-15.3-2.9-23.2-2.7c-4,0.1-7.9,0.4-11.9,0.8c-4,0.5-7.9,1.1-11.9,1.8
				c-7.9,1.5-15.7,3.3-23.3,5.5c-7.7,2.1-15.3,4.5-22.8,7.1c-15,5.1-29.5,10.9-43.7,17c-28.3,12.2-55.2,25.4-80.3,38.5
				s-48.5,26.2-70,38.5c-21.4,12.4-40.9,23.9-58.1,34.4c-17.2,10.4-32.1,19.7-44.3,27.5C50.6,407.9,41,414,34.6,418.3
				C28.1,422.5,24.6,424.8,24.6,424.8z"
                  />
                </g>
                <g>
                  <path
                    style="fill:#D3BF4C;"
                    d="M2.8,449c0,0,3.4-2.4,9.7-6.8c6.4-4.4,15.7-10.8,27.8-18.8c12-8,26.7-17.6,43.7-28.4
				s36.3-22.8,57.6-35.4s44.6-26,69.6-39.5c25-13.4,51.8-27,80.2-39.4c14.2-6.2,28.9-12.1,44-17.4s30.7-9.9,46.9-12.9
				c4-0.7,8.1-1.4,12.2-1.9s8.3-0.8,12.4-0.9c8.3-0.2,16.9,0.4,25.1,2.9c4.1,1.3,8.1,3,11.8,5.5c3.7,2.4,6.9,5.5,9.5,9.1
				s4.6,7.6,5.9,11.7c1.3,4.1,2.2,8.4,2.5,12.7c0.4,4.3,0.4,8.5,0.2,12.7l-0.5,6.2c-0.2,2.1-0.2,4-0.3,6c-0.1,8,0.8,16.1,3.7,23.3
				c1.4,3.6,3.4,6.9,5.9,9.8s5.5,5.3,8.9,7.1c6.7,3.8,14.6,5.3,22.4,5.8c7.9,0.5,15.8-0.2,23.7-1.4c7.9-1.2,15.6-2.9,23.2-4.9
				c15.3-4.1,30-9.4,44.4-15.1c14.3-5.7,28.2-12,41.6-18.3c13.4-6.4,26.4-12.9,39-19.5c25.1-13.2,48.4-26.5,69.7-39.1
				c10.6-6.3,20.8-12.5,30.4-18.4c9.6-5.9,18.7-11.6,27.2-16.9c17-10.7,31.7-20.3,43.7-28.3s21.5-14.3,27.8-18.7
				c6.4-4.4,9.8-6.7,9.8-6.7s-3.3,2.4-9.6,7c-6.3,4.5-15.5,11.1-27.5,19.3c-11.9,8.2-26.4,18-43.3,29.1c-16.8,11-36,23.3-57.2,36.1
				c-21.2,12.9-44.4,26.4-69.4,39.9c-25,13.4-51.8,27-80.6,38.7c-14.4,5.8-29.3,11.2-44.8,15.5c-7.8,2.1-15.7,3.9-23.7,5.2
				c-8.1,1.2-16.3,2-24.7,1.5c-4.2-0.2-8.4-0.8-12.5-1.8s-8.2-2.4-12-4.6c-3.8-2.1-7.3-4.9-10.2-8.2c-2.9-3.3-5.1-7.2-6.8-11.2
				c-3.3-8.1-4.2-16.8-4.1-25.2c0.1-2.1,0.1-4.3,0.3-6.3l0.4-6.1c0.2-4,0.2-8-0.2-12c-0.3-4-1.1-7.9-2.3-11.6
				c-1.2-3.7-2.9-7.2-5.2-10.3c-2.3-3.1-5.1-5.8-8.3-7.9c-3.2-2.2-6.8-3.7-10.5-4.9c-7.5-2.3-15.6-2.9-23.6-2.7c-4,0.1-8,0.4-12,0.9
				s-8,1.1-11.9,1.8c-7.9,1.5-15.7,3.3-23.4,5.5c-7.7,2.1-15.3,4.5-22.8,7.1c-15,5.2-29.6,11-43.8,17
				c-28.3,12.2-55.2,25.5-80.3,38.6c-25.1,13.2-48.5,26.3-69.9,38.7c-21.4,12.4-40.9,24.1-58,34.6c-17.2,10.5-32,19.9-44.2,27.6
				c-12.2,7.8-21.7,14-28.2,18.2C6.2,446.7,2.8,449,2.8,449z"
                  />
                </g>
              </g>
            </g>
          </g>
        </g>
      </svg>